<svg id="Capa_1" data-name="Capa 1" xmlns="http://www.w3.org/2000/svg" viewBox="0 0 16.92 16.92"><defs><style>.cls-1{fill:#dadada;fill-rule:evenodd;}</style></defs><title>sol</title><path class="cls-1" d="M6.38,3.56c-.23-.11-3.29-1.15-3.44-1.15-1.16,0-.42,1.35-.1,2.33.18.53.39,1.32.6,1.76-.33.08-2.14,1-2.7,1.32S0,8.14,0,8.58s.77.74,1.53,1.12a14,14,0,0,0,1.84.89c0,.7-1.08,2.9-1.08,3.66,0,.18.39.5.51.5a14.81,14.81,0,0,0,1.8-.57c.56-.18,1.22-.45,1.78-.58.32.6.6,1.19.91,1.82S7.88,17,8.39,17s.58-.3.74-.62.31-.58.45-.91c.21-.51.8-1.53.89-1.91a14.63,14.63,0,0,1,2,.62c.79.26,1.53.69,2,.36s.21-.55.09-.9-.24-.7-.34-1c-.21-.63-.51-1.38-.66-2l3.14-1.59a.88.88,0,0,0,.3-.4V8.46c-.06-.22-.33-.41-.62-.55l-1-.48c-.62-.3-1.26-.61-1.87-.93L14.63,3a.7.7,0,0,0-.58-.58l-2.62.82a3.5,3.5,0,0,1-1,.26c-.08-.33-1-2.14-1.32-2.7S8.91.12,8.32.12,6.41,3.44,6.38,3.56ZM5.27,8.45a3.46,3.46,0,0,1,1-2.16,3.28,3.28,0,0,1,1-.63,3.17,3.17,0,0,1,4.44,2.86,3.13,3.13,0,0,1-3.3,3.23A3.24,3.24,0,0,1,5.27,8.45Z" transform="translate(0 -0.12)"/></svg>